# xmcd
#
# Track frame offsets:
#	150
#	20621
#	40322
#	59917
#	78650
#	97867
#	118607
#	139148
#	167161
#	186574
#	210626
#
# Disc length: 3080 seconds
#
# Revision: 4294901761
# Processed by: cddbd v1.5.2PL0 Copyright (c) Steve Scherf et al.
# Submitted via: EZCDAudioConverter 8.0.2.1
#
DISCID=a20c060b
DTITLE=Huỳnh Gia Tuấn - Tình Yêu Nồng Nàn
DYEAR=2010
DGENRE=
TTITLE0=Tình Yêu Nồng Nàn
TTITLE1=Ký ức một cuộc tình
TTITLE2=Bao ngày qua
TTITLE3=Xin yêu trong mơ
TTITLE4=Khóc thêm lần nữa
TTITLE5=Tình đầu vội xa
TTITLE6=7:05 AM Một tình yêu
TTITLE7=Lk Nửa vằng trăng
TTITLE8=Tình Yêu Nồng Nàn (Ballad Version)
TTITLE9=Tình Yêu Nồng Nàn (Tango Version)
TTITLE10=Khóc thêm lần nữa (Dance Version)
EXTD=
EXTT0=
EXTT1=
EXTT2=
EXTT3=
EXTT4=
EXTT5=
EXTT6=
EXTT7=
EXTT8=
EXTT9=
EXTT10=
PLAYORDER=
